# xmcd
#
# Track frame offsets: 
#        150
#        3237
#        19312
#        38007
#        55097
#        75652
#        98755
#        115895
#        135730
#        153937
#        176602
#
# Disc length: 2636 seconds
#
# Revision: 9
# Processed by: cddbd v1.5.2PL0 Copyright (c) Steve Scherf et al.
# Submitted via: ExactAudioCopy v0.99pb5
#
DISCID=7c0a4a0b
DTITLE=Buck-Tick - Hurry Up Mode
DYEAR=1990
DGENRE=Rock
TTITLE0=Prologue
TTITLE1=Plastic Syndrome Type?
TTITLE2=Hurry Up Mode
TTITLE3=Telephone Murder
TTITLE4=Fly High
TTITLE5=One Night Ballet
TTITLE6=Moon Light
TTITLE7=For Dangerous Kids
TTITLE8=Romanesque
TTITLE9=Secret Reaction
TTITLE10=Stay Gold
EXTD=YEAR: 1990
EXTT0=
EXTT1=
EXTT2=
EXTT3=
EXTT4=
EXTT5=
EXTT6=
EXTT7=
EXTT8=
EXTT9=
EXTT10=
PLAYORDER=
